Patient4_TMGait_0pt7_02_right_18_GRF.mot
version=1
nRows=45
nColumns=19
inDegrees=no
endheader
time	F1x	F1y	F1z	M1x	M1y	M1z	F2x	F2y	F2z	M2x	M2y	M2z	EC1x	EC1y	EC1z	EC2x	EC2y	EC2z
19.77	-49.5022	773.7518	80.2949	-256.6933	-97.1657	813.3248	-5.1283	-10.6099	-23.6486	3.456	16.5317	-9.9554	-0.0592	0.0182	-0.0073	-0.0462	0.0165	0.9585
19.7816	-34.4993	771.1289	78.1041	-255.8948	-90.4299	809.7124	-3.6406	-6.1341	-15.9198	2.7357	11.1435	-5.4225	-0.0592	0.0182	-0.0073	-0.0462	0.0165	0.9585
19.7933	-21.2428	767.9103	76.2432	-254.753	-84.3932	804.5743	-2.3188	-2.3106	-9.3893	2.1403	6.5888	-1.5509	-0.0592	0.0182	-0.0073	-0.0462	0.0165	0.9585
19.8049	-10.3783	763.9671	74.7686	-253.2294	-79.3104	797.8061	-1.2573	0.655	-4.4108	1.7074	3.1119	1.4517	-0.0592	0.0182	-0.0073	-0.0462	0.0165	0.9585
19.8166	-1.9715	759.1431	73.7198	-251.2935	-75.2592	789.4459	-0.50382	2.7722	-0.97575	1.4314	0.72037	3.6151	-0.0592	0.0182	-0.0073	-0.0462	0.0165	0.9585
19.8282	4.2867	753.2878	73.0058	-248.9318	-72.097	779.4927	-0.012596	4.1433	1.1519	1.2822	-0.75391	5.0224	-0.0592	0.0182	-0.0073	-0.0462	0.0165	0.9585
19.8399	8.7989	746.2991	72.5731	-246.1468	-69.6847	768.0533	0.24532	4.9141	2.2654	1.216	-1.5051	5.8196	-0.0592	0.0182	-0.0073	-0.0462	0.0165	0.9585
19.8515	12.0287	738.1638	72.2772	-242.9763	-67.7764	755.2459	0.34095	5.1798	2.671	1.1754	-1.7492	6.0749	-0.0592	0.0182	-0.0073	-0.0462	0.0165	0.9585
19.8631	14.3378	729.0401	72.0284	-239.5059	-66.197	741.3341	0.30369	5.0069	2.6198	1.1025	-1.6543	5.8515	-0.0592	0.0182	-0.0073	-0.0462	0.0165	0.9585
19.8748	16.1199	719.245	71.7225	-235.8716	-64.7452	726.6733	0.20131	4.3645	2.3062	0.92571	-1.3621	5.0835	-0.0592	0.0182	-0.0073	-0.0462	0.0165	0.9585
19.8864	17.6722	709.2694	71.3176	-232.2533	-63.2952	711.7719	0.056657	3.2007	1.8742	0.57721	-0.97542	3.7016	-0.0592	0.0182	-0.0073	-0.0462	0.0165	0.9585
19.8981	19.2644	699.6783	70.799	-228.8459	-61.75	697.1679	-0.060773	1.4231	1.4087	-0.0071988	-0.56724	1.5649	-0.0592	0.0182	-0.0073	-0.0462	0.0165	0.9585
19.9097	21.1153	691.1243	70.1542	-225.852	-60.0261	683.4823	-0.13589	-1.018	0.97993	-0.86622	-0.19923	-1.3906	-0.0592	0.0182	-0.0073	-0.0462	0.0165	0.9585
19.9214	23.4177	684.2427	69.4281	-223.4546	-58.0955	671.2911	-0.10724	-4.1035	0.6229	-1.9999	0.074082	-5.1533	-0.0592	0.0182	-0.0073	-0.0462	0.0165	0.9585
19.933	26.3352	679.6489	68.6655	-221.8157	-55.9412	661.1756	0.050853	-7.622	0.38579	-3.3279	0.18354	-9.4575	-0.0592	0.0182	-0.0073	-0.0462	0.0165	0.9585
19.9446	29.9924	677.8324	67.9874	-221.0461	-53.6343	653.6182	0.41918	-11.1247	0.31245	-4.6623	0.042883	-13.769	-0.0592	0.0182	-0.0073	-0.0462	0.0165	0.9585
19.9563	34.4203	679.0316	67.5208	-221.1703	-51.2787	648.8823	1.0416	-13.7275	0.4695	-5.6452	-0.45364	-17.0157	-0.0592	0.0182	-0.0073	-0.0462	0.0165	0.9585
19.9679	39.5522	683.1494	67.4256	-222.1055	-49.0396	646.9552	1.9818	-14.0642	0.94113	-5.7213	-1.4331	-17.5552	-0.0592	0.0182	-0.0073	-0.0462	0.0165	0.9585
19.9796	45.1991	689.6453	67.8063	-223.639	-47.0743	647.4524	3.226	-10.1231	1.8183	-4.086	-3.0031	-12.9185	-0.0592	0.0182	-0.0073	-0.0462	0.0165	0.9585
19.9912	51.0153	697.5149	68.6448	-225.4286	-45.4754	649.5665	4.7317	0.70668	3.1846	0.30244	-5.2362	0.085166	-0.0592	0.0182	-0.0073	-0.0462	0.0165	0.9585
20.0029	56.6041	705.2958	69.7849	-227.0099	-44.2377	652.0845	6.2782	21.5024	5.0778	8.6609	-8.0778	25.2317	-0.0592	0.0182	-0.0073	-0.0462	0.0165	0.9585
20.0145	61.5217	711.1287	70.9034	-227.8224	-43.2253	653.4188	7.5103	55.3653	7.4519	22.2053	-11.3015	66.3059	-0.0592	0.0182	-0.0073	-0.0462	0.0165	0.9585
20.0261	65.3943	712.928	71.5969	-227.2595	-42.2173	651.7372	7.7929	104.6632	10.098	41.8404	-14.377	126.2335	-0.0592	0.0182	-0.0073	-0.0462	0.0165	0.9585
20.0378	67.9548	708.5665	71.3937	-224.7268	-40.8961	645.1492	6.2593	169.7191	12.566	67.6458	-16.383	205.4614	-0.0592	0.0182	-0.0073	-0.0462	0.0165	0.9585
20.0494	69.0772	696.0903	69.8807	-219.6999	-38.9496	631.8672	1.677	247.1351	14.0472	98.1992	-15.8468	299.9547	-0.0592	0.0182	-0.0073	-0.0462	0.0165	0.9585
20.0611	68.7338	673.9443	66.7389	-211.782	-36.1125	610.428	-7.3074	328.1376	13.4133	129.9393	-10.9218	399.1269	-0.0592	0.0182	-0.0073	-0.0462	0.0165	0.9585
20.0727	67.0267	641.2026	61.8725	-200.7607	-32.2811	579.8833	-20.088	399.9259	9.1063	157.7738	-0.2266	487.3799	-0.0592	0.0182	-0.0073	-0.0462	0.0165	0.9585
20.0844	64.0684	597.808	55.5311	-186.6569	-27.6423	540.0548	-33.9722	454.7413	1.0853	178.6387	15.1001	554.9532	-0.0592	0.0182	-0.0073	-0.0462	0.0165	0.9585
20.096	59.9842	544.7312	48.2587	-169.7552	-22.6126	491.7409	-47.343	493.5264	-8.9294	192.9256	32.4531	602.7318	-0.0592	0.0182	-0.0073	-0.0462	0.0165	0.9585
20.1076	54.9742	483.678	40.8146	-150.5351	-17.7657	436.4113	-58.829	521.7779	-20.0637	202.8559	50.2091	637.1819	-0.0592	0.0182	-0.0073	-0.0462	0.0165	0.9585
20.1193	49.1342	417.1518	33.6684	-129.7166	-13.4447	376.2985	-67.7644	545.5644	-30.3832	210.9426	65.9541	665.6254	-0.0592	0.0182	-0.0073	-0.0462	0.0165	0.9585
20.1309	42.5661	348.1814	27.0992	-108.1954	-9.8502	314.0973	-73.6997	568.7153	-39.2797	218.7898	78.7417	692.7239	-0.0592	0.0182	-0.0073	-0.0462	0.0165	0.9585
20.1426	35.3526	280.153	21.1591	-86.9942	-6.995	252.8793	-76.6887	592.7299	-46.0084	227.0618	87.7905	720.3579	-0.0592	0.0182	-0.0073	-0.0462	0.0165	0.9585
20.1542	27.8146	216.403	15.9082	-67.1363	-4.8419	195.5894	-76.9658	617.3762	-51.0854	235.6752	93.752	748.3387	-0.0592	0.0182	-0.0073	-0.0462	0.0165	0.9585
20.1659	20.4018	159.7683	11.3621	-49.5013	-3.2668	144.7735	-75.0134	641.7454	-55.0374	244.2346	97.4465	775.6848	-0.0592	0.0182	-0.0073	-0.0462	0.0165	0.9585
20.1775	13.7106	112.0108	7.552	-34.6464	-2.1129	101.9169	-71.4245	664.3961	-58.5241	252.1467	99.875	800.7839	-0.0592	0.0182	-0.0073	-0.0462	0.0165	0.9585
20.1891	8.0874	73.7765	4.5253	-22.7706	-1.3012	67.5975	-67.0257	684.106	-61.8972	258.9189	101.7677	822.2935	-0.0592	0.0182	-0.0073	-0.0462	0.0165	0.9585
20.2008	3.7609	44.6879	2.2661	-13.7571	-0.7474	41.4254	-62.4281	700.2732	-65.077	264.3345	103.3254	839.4987	-0.0592	0.0182	-0.0073	-0.0462	0.0165	0.9585
20.2124	0.68315	23.886	0.74556	-7.3258	-0.43669	22.6851	-58.179	713.0978	-67.9841	268.5006	104.6749	852.6375	-0.0592	0.0182	-0.0073	-0.0462	0.0165	0.9585
20.2241	-1.1243	10.043	-0.15102	-3.0624	-0.26809	10.1639	-54.5132	723.1822	-70.4123	271.6824	105.7231	862.3062	-0.0592	0.0182	-0.0073	-0.0462	0.0165	0.9585
20.2357	-1.9529	1.7841	-0.57008	-0.53069	-0.19997	2.6857	-51.6266	731.0936	-72.5366	274.117	106.7069	869.1151	-0.0592	0.0182	-0.0073	-0.0462	0.0165	0.9585
20.2474	-2.1012	-2.337	-0.6627	0.71788	-0.19707	-1.1085	-49.5275	737.2579	-74.2284	276.0003	107.5191	873.4634	-0.0592	0.0182	-0.0073	-0.0462	0.0165	0.9585
20.259	-1.9112	-3.6725	-0.57014	1.105	-0.23832	-2.3731	-48.193	742.1593	-75.7435	277.5126	108.4126	875.8839	-0.0592	0.0182	-0.0073	-0.0462	0.0165	0.9585
20.2706	-1.5132	-3.3386	-0.37209	0.97559	-0.30318	-2.1667	-47.5139	746.2543	-76.9983	278.8472	109.2794	876.8393	-0.0592	0.0182	-0.0073	-0.0462	0.0165	0.9585
20.2823	-1.1243	-2.1566	-0.1591	0.58705	-0.37049	-1.1829	-47.3544	750.0772	-78.1294	280.1936	110.1994	876.952	-0.0592	0.0182	-0.0073	-0.0462	0.0165	0.9585
